<?xml version="1.0" encoding="utf-8"?>
<!-- Generator: Adobe Illustrator 19.2.1, SVG Export Plug-In . SVG Version: 6.00 Build 0)  -->
<svg version="1.1" id="Ebene_1" xmlns="http://www.w3.org/2000/svg" xmlns:xlink="http://www.w3.org/1999/xlink" x="0px" y="0px"
	 viewBox="0 0 50 50" style="enable-background:new 0 0 50 50;" xml:space="preserve">
<path d="M43.5,17.8c-0.5-1.1-1.1-2.2-1.8-3.2c-0.2-0.4-0.5-0.7-0.8-1.1c-3.3-4.2-7.6-6.7-13-7.3c-1.5-0.2-3-0.2-4.4-0.1
	c-1.2,0.1-2.4,0.3-3.6,0.7c-2.2,0.7-4.3,1.8-6.3,3.4c-3.8,3-6.2,6.8-7.1,11.4c-0.1,0.5-0.2,1-0.2,1.6C6.1,23.8,6,24.5,6,25.2
	c-0.1,4.5,1.3,8.6,4.1,12.3c1.6,2,3.4,3.7,5.5,4.9c1,0.6,2.2,1.1,3.3,1.5c1.3,0.4,2.7,0.8,4.2,0.9c5.3,0.7,10.1-0.7,14.4-4
	c0.3-0.2,0.5-0.4,0.8-0.6c1-0.8,1.8-1.7,2.6-2.6c2.2-2.7,3.6-6,4-9.7C45.3,24.3,44.8,20.9,43.5,17.8L43.5,17.8z M37.9,15.8
	c0.2,0.2,0.4,0.5,0.5,0.7c0.7,1,1.3,2,1.7,3c1,2.4,1.3,5.1,1,7.9c-0.4,3-1.4,5.5-3.1,7.7c-0.7,0.9-1.5,1.7-2.4,2.5
	c-0.1,0.1-0.3,0.2-0.4,0.3c-3.4,2.7-7.3,3.8-11.6,3.2c-1.1-0.1-2.1-0.4-3.1-0.7c-1.1-0.4-2.2-0.8-3.1-1.4c-1.6-1-3-2.2-4.2-3.8
	c-2.3-2.9-3.4-6.1-3.4-9.7c0-0.6,0-1.3,0.1-2c0.1-0.5,0.1-1,0.2-1.5c0.8-3.7,2.7-6.7,5.7-9c1.5-1.2,3.2-2.1,4.9-2.6
	c1.1-0.4,2.2-0.6,3.4-0.7c1.1-0.1,2.2,0,3.3,0.1C31.7,10.4,35.3,12.3,37.9,15.8L37.9,15.8z M23.8,32.7l-2.2,5
	c0.7,0.2,1.5,0.4,2.3,0.5c3.5,0.4,6.6-0.4,9.4-2.6c0,0,0.1,0,0.1-0.1l-4-3.9c-1-1-2.1-1.4-3.2-1.2C25.2,30.6,24.4,31.4,23.8,32.7
	L23.8,32.7z M27.9,25.8c0.1-0.7-0.1-1.3-0.5-1.8c-0.4-0.5-0.9-0.8-1.6-0.9c-0.7-0.1-1.3,0.1-1.8,0.5c-0.5,0.4-0.8,0.9-0.9,1.6
	c-0.1,0.7,0.1,1.3,0.5,1.8c0.4,0.5,0.9,0.8,1.6,0.9c0.7,0.1,1.3-0.1,1.8-0.5C27.5,27,27.8,26.5,27.9,25.8L27.9,25.8z M15.4,33.4
	c0.9,1.2,2,2.2,3.2,3l2.5-4.9c0.6-1.3,0.7-2.4,0.1-3.4c-0.5-1-1.5-1.5-2.9-1.7l-5.6-0.5C12.7,28.6,13.6,31.1,15.4,33.4L15.4,33.4z
	 M21.9,22.5c0.8-0.8,1-1.9,0.7-3.3l-1.3-5.8c-1.3,0.4-2.5,1.1-3.7,2c-2.4,1.9-3.9,4.3-4.6,7.1l5.6,0.8C20,23.6,21.1,23.3,21.9,22.5
	L21.9,22.5z M35.8,33.2c1.3-1.7,2.1-3.8,2.4-6.1c0.3-2.2,0-4.2-0.7-6.1l-5.3,2.7c-1.3,0.6-2,1.5-2.1,2.7c-0.1,1.1,0.3,2.1,1.4,3.1
	L35.8,33.2L35.8,33.2z M35.9,18c-0.1-0.1-0.2-0.3-0.3-0.4c-2.2-2.8-5-4.4-8.5-4.8c-0.9-0.1-1.7-0.1-2.5-0.1l1,5.9
	c0.2,1.4,0.9,2.3,1.9,2.8c1,0.5,2.1,0.4,3.4-0.4L35.9,18L35.9,18z"/>
</svg>
