<?xml version="1.0" encoding="utf-8"?>
<!-- Generator: Adobe Illustrator 19.2.1, SVG Export Plug-In . SVG Version: 6.00 Build 0)  -->
<svg version="1.1" id="Ebene_1" xmlns="http://www.w3.org/2000/svg" xmlns:xlink="http://www.w3.org/1999/xlink" x="0px" y="0px"
	 viewBox="0 0 50 50" style="enable-background:new 0 0 50 50;" xml:space="preserve">
<path d="M21.1,38.5l-2.4,1.2c1.5,3.7,3.3,5.5,5.4,5.5l0.5,0l0.5,0c2,0,3.8-1.9,5.2-5.6l-2.4-1.1c-0.9,2.9-2,4.3-3.4,4.3
	C23.3,42.9,22.1,41.4,21.1,38.5L21.1,38.5z M42,27.5c-0.5-0.7-1.2-1.2-2.1-1.3c-0.8-0.1-1.6,0.1-2.4,0.6c-0.7,0.5-1.1,1.2-1.2,2.1
	c-0.2,0.9,0,1.7,0.6,2.4c0.5,0.7,1.2,1.2,2.1,1.3c0.5,0.1,0.9,0.1,1.3,0c1,1.6,1.2,2.8,0.6,3.6c-0.8,1.2-3.1,1.1-7-0.4
	c-1.5-0.5-3.1-1.2-4.7-2.1l-2.8,1.8c2.7,1.5,5.3,2.5,7.7,3.2c4.3,1.2,7.1,1.1,8.5-0.5l0.9-1.2c0.8-1.4,0.5-3.5-1.1-6.1
	c0.1-0.2,0.2-0.6,0.3-1C42.8,29.1,42.6,28.3,42,27.5L42,27.5z M29.8,9.4c-1.4-3.5-3.1-5.3-5.1-5.4l-1.5,0.1c-1.9,0.1-3.5,2-4.9,5.6
	l2.5,1.1c0.9-2.9,2-4.3,3.3-4.3c1.3,0,2.4,1.3,3.4,4L29.8,9.4L29.8,9.4z M6.2,10.9l-0.2,0.4c-0.1,0.1-0.2,0.2-0.4,0.4
	c-1,1.4-0.7,3.4,0.8,6.1c-0.2,0.4-0.4,0.8-0.5,1.3c-0.2,0.9,0,1.7,0.6,2.4c0.5,0.7,1.2,1.2,2.1,1.3c0.9,0.2,1.7,0,2.4-0.6
	c0.7-0.5,1.1-1.2,1.2-2.1c0.1-0.8-0.1-1.6-0.6-2.4c-0.6-0.7-1.3-1.2-2.1-1.3c-0.3,0-0.7,0-1.1,0c-0.9-1.6-1.1-2.7-0.5-3.5
	c0.9-1.2,3.2-1.1,6.9,0.4c2.3,0.9,4.5,1.9,6.6,3.2l-1.9,1.3c-1.9,1.4-3.9,3.1-5.9,4.9l-2,1.9c-1.5,1.5-2.8,3.1-3.8,4.6
	c-2.6,3.7-3.4,6.4-2.4,8.2l0.9,1.2c1.3,1.5,4.2,1.6,8.6,0.2c4.5-1.4,9.3-4,14.4-7.8c5.2-3.8,9.1-7.6,11.8-11.5
	c2.8-3.9,3.5-6.6,2.2-8.3l-0.3-0.4l-0.2-0.5c-1.3-1.7-4.2-1.9-8.7-0.4c-3.1,1-6.4,2.6-9.9,4.7c-3.3-2-6.5-3.4-9.6-4.3
	C10.2,9,7.4,9.2,6.2,10.9L6.2,10.9z M24.3,18.1c0.8,0.5,1.8,1.2,3.1,2.1l3.7,2.8l2.3-2c-1.3-1.1-2.7-2.1-4.2-3.2l-2-1.4
	c2.4-1.4,4.7-2.6,6.8-3.5c3.8-1.5,6.2-1.7,7-0.5c0.9,1.2,0,3.3-2.6,6.5c-2.6,3.2-6.2,6.5-10.7,9.8c-4.7,3.4-8.8,5.8-12.5,7.3
	c-3.8,1.5-6.2,1.7-7.1,0.5c-0.8-1.2,0.1-3.4,2.6-6.6c1-1.2,2-2.3,3.1-3.3c1.8,1.6,3.7,3.1,5.8,4.5l2.8-1.6l-1-0.6
	c-2-1.5-3.8-2.9-5.4-4.2c1.8-1.5,3.6-3,5.5-4.5L24.3,18.1z"/>
</svg>
