<?xml version="1.0" encoding="utf-8"?>
<!-- Generator: Adobe Illustrator 19.2.1, SVG Export Plug-In . SVG Version: 6.00 Build 0)  -->
<svg version="1.1" id="Ebene_1" xmlns="http://www.w3.org/2000/svg" xmlns:xlink="http://www.w3.org/1999/xlink" x="0px" y="0px"
	 viewBox="0 0 50 50" style="enable-background:new 0 0 50 50;" xml:space="preserve">
<path d="M11.6,41.9c0,1,0.4,1.8,1.1,2.5c0.7,0.7,1.6,1,2.6,1s1.8-0.3,2.5-1c0.7-0.7,1.1-1.5,1.1-2.5s-0.4-1.9-1.1-2.6s-1.5-1-2.5-1
	s-1.9,0.3-2.6,1C11.9,40,11.6,40.9,11.6,41.9L11.6,41.9z M29,11.9c0-0.7-0.3-1-1-1h-9.6c-0.7,0-1,0.3-1,1v16.9c0,0.7,0.3,1.1,1,1.1
	H28c0.7,0,1-0.4,1-1.1V11.9L29,11.9z M44.5,36.1v-3.8H14.9V6.5H8.1c-0.5,0-1,0.2-1.4,0.5C6.3,7.4,6.2,7.8,6.2,8.4
	c0,0.5,0.2,1,0.5,1.4c0.4,0.4,0.8,0.5,1.4,0.5h2.9V32v4.1H44.5L44.5,36.1z M41.7,44.4c0.7-0.7,1-1.5,1-2.5s-0.3-1.9-1-2.6
	c-0.7-0.7-1.6-1-2.5-1c-1,0-1.9,0.3-2.6,1s-1.1,1.6-1.1,2.6s0.4,1.8,1.1,2.5c0.7,0.7,1.6,1,2.6,1C40.2,45.5,41,45.1,41.7,44.4
	L41.7,44.4z M42.8,28.8v-9.5c0-0.7-0.4-1.1-1.1-1.1h-9.5c-0.7,0-1.1,0.4-1.1,1.1v9.5c0,0.7,0.4,1.1,1.1,1.1h9.5
	C42.5,29.9,42.8,29.6,42.8,28.8L42.8,28.8z"/>
</svg>
