<?xml version="1.0" encoding="utf-8"?>
<!-- Generator: Adobe Illustrator 19.2.1, SVG Export Plug-In . SVG Version: 6.00 Build 0)  -->
<svg version="1.1" id="Ebene_1" xmlns="http://www.w3.org/2000/svg" xmlns:xlink="http://www.w3.org/1999/xlink" x="0px" y="0px"
	 viewBox="0 0 50 50" style="enable-background:new 0 0 50 50;" xml:space="preserve">
<path d="M34.6,25.5c0-2.4-0.8-4.4-2.5-6.1c-1.7-1.7-3.7-2.6-6.1-2.6s-4.4,0.9-6.1,2.6c-1.7,1.7-2.6,3.7-2.6,6.1s0.9,4.4,2.6,6.1
	c1.7,1.7,3.7,2.6,6.1,2.6s4.4-0.9,6.1-2.6C33.8,29.9,34.6,27.9,34.6,25.5L34.6,25.5z M33.4,35.5l5,5l2.6-2.7l-5-5
	c-0.4,0.5-0.8,0.9-1.2,1.4C34.3,34.7,33.9,35.1,33.4,35.5L33.4,35.5z M10.7,37.8l2.6,2.6l5.1-5.1c-0.4-0.3-0.9-0.7-1.3-1.1
	c-0.5-0.5-0.9-1-1.3-1.6L10.7,37.8L10.7,37.8z M24,37.8v7.1h3.7v-7C27.1,38,26.5,38,26,38C25.3,37.9,24.7,37.9,24,37.8L24,37.8z
	 M13.7,23.5H6.4v3.7h7.3c-0.1-0.6-0.1-1.2-0.1-1.7C13.6,24.8,13.6,24.1,13.7,23.5L13.7,23.5z M17.2,16.7c0.4-0.4,0.9-0.9,1.4-1.2
	l-5.2-5.2l-2.7,2.6l5.2,5.2C16.3,17.6,16.8,17.1,17.2,16.7L17.2,16.7z M27.8,13.2V5.9h-3.7v7.3c0.6-0.1,1.3-0.1,2-0.1
	C26.6,13.1,27.2,13.1,27.8,13.2L27.8,13.2z M41,12.9l-2.6-2.6l-5.1,5.1c0.5,0.4,1.1,0.8,1.6,1.3c0.4,0.4,0.8,0.8,1.1,1.3L41,12.9
	L41,12.9z M45.4,27.2v-3.7h-7.1c0.1,0.6,0.1,1.3,0.1,2c0,0.6,0,1.2-0.1,1.7H45.4L45.4,27.2z"/>
</svg>
