<?xml version="1.0" encoding="utf-8"?>
<!-- Generator: Adobe Illustrator 19.2.1, SVG Export Plug-In . SVG Version: 6.00 Build 0)  -->
<svg version="1.1" id="Ebene_1" xmlns="http://www.w3.org/2000/svg" xmlns:xlink="http://www.w3.org/1999/xlink" x="0px" y="0px"
	 viewBox="0 0 50 50" style="enable-background:new 0 0 50 50;" xml:space="preserve">
<style type="text/css">
	.st0{fill:#222222;}
</style>
<path class="st0" d="M18.5,28.2L11.8,35l-1.6,7.6l7.6-1.1l7.1-7L18.5,28.2L18.5,28.2z M37.9,8.9L27.4,19.4l6.4,6.4l10.5-10.6
	L37.9,8.9L37.9,8.9z M41,41.9c0.7-0.7,1.1-1.6,1.1-2.6s-0.4-1.8-1.1-2.6l-15.9-16c-0.2-0.2-0.6-0.6-1.2-1.1
	c-0.1-0.1-0.2-0.2-0.4-0.5c-0.2-0.4-0.4-0.7-0.5-1.1c-0.1-0.5-0.1-1.2-0.1-2c0-0.9-0.1-1.7-0.4-2.5c-0.2-0.9-0.7-1.6-1.2-2.3
	c0-0.1-0.1-0.2-0.2-0.2c-0.4-0.4-0.7-0.9-1.2-1.1c-1.4-1-2.8-1.5-4.5-1.5c-0.5,0-1,0-1.5,0.1c-0.4,0.1-0.7,0.1-1.1,0.2l4.8,4.8
	c0.1,0.2,0.1,0.4,0.1,0.4c-0.1,1-0.5,1.8-1.1,2.5c-0.5,0.5-0.9,0.9-1.5,1.2c-0.6,0.4-1.2,0.7-1.8,0.9h-0.4l-5-5
	c-0.2,0.9-0.5,1.7-0.5,2.7c0,2.1,0.7,3.9,2.2,5.5c1.5,1.5,3.3,2.3,5.5,2.3h1c1.1,0,1.8,0.2,2.5,0.7c0.5,0.5,0.9,0.9,1.1,1.2
	l16.2,16.1c0.7,0.7,1.6,1.1,2.7,1.1C39.7,43.2,40.3,42.6,41,41.9L41,41.9z"/>
</svg>
