<?xml version="1.0" encoding="utf-8"?>
<!-- Generator: Adobe Illustrator 19.2.1, SVG Export Plug-In . SVG Version: 6.00 Build 0)  -->
<svg version="1.1" id="Ebene_1" xmlns="http://www.w3.org/2000/svg" xmlns:xlink="http://www.w3.org/1999/xlink" x="0px" y="0px"
	 viewBox="0 0 50 50" style="enable-background:new 0 0 50 50;" xml:space="preserve">
<path d="M21.4,28.4h-9.2c3.6,4.2,8,8.7,13.2,13.7c5.2-4.9,9.5-9.4,13.1-13.6h-4.9L31.1,21l-4.2,14.1l-4-10.2L21.4,28.4L21.4,28.4z
	 M40.7,25.8c1.9-3.1,3-5.8,3.2-8.3v-0.2c0-1.1-0.1-2.2-0.5-3.3c-0.3-1-0.8-2-1.5-2.8c-1.4-1.8-3.2-3-5.4-3.4
	c-2.4-0.4-4.6-0.3-6.5,0.5c-2,0.8-3.5,2.2-4.6,4.2c-1-2-2.6-3.4-4.6-4.2c-1.9-0.8-4.1-1-6.5-0.5c-2.2,0.4-4,1.5-5.4,3.4
	C8.2,12,7.8,13,7.4,14s-0.5,2.1-0.5,3.3v0.2c0.2,2.4,1.3,5.2,3.1,8.2h9.5l3.4-8.2l3.6,9.2l4.4-14.9l4.7,14H40.7L40.7,25.8z"/>
</svg>
