<?xml version="1.0" encoding="utf-8"?>
<!-- Generator: Adobe Illustrator 19.2.1, SVG Export Plug-In . SVG Version: 6.00 Build 0)  -->
<svg version="1.1" id="Ebene_1" xmlns="http://www.w3.org/2000/svg" xmlns:xlink="http://www.w3.org/1999/xlink" x="0px" y="0px"
	 viewBox="0 0 50 50" style="enable-background:new 0 0 50 50;" xml:space="preserve">
<g transform="translate(-5 -3)">
	<path d="M15.7,23.7c-0.7,0-1,0.4-1,1v15.7c0,0.7,0.4,1,1,1h4.6c0.7,0,1-0.4,1-1V24.7c0-0.7-0.4-1-1-1L15.7,23.7L15.7,23.7z
		 M40.6,23.7c-0.7,0-1,0.4-1,1v15.7c0,0.7,0.4,1,1,1h4.6c0.7,0,1-0.4,1-1V24.7c0-0.7-0.4-1-1-1L40.6,23.7L40.6,23.7z M33.8,24.7
		c0-0.7-0.4-1-1-1h-4.6c-0.7,0-1,0.4-1,1v15.7c0,0.7,0.4,1,1,1h4.6c0.7,0,1-0.4,1-1L33.8,24.7L33.8,24.7z"/>
	<polygon points="49,20.2 49,17.2 30.5,10 12,17.2 12,20.2 	"/>
	<polygon points="12.1,43 12.1,47.5 48.9,47.5 48.9,43 	"/>
</g>
</svg>
