<?xml version="1.0" encoding="utf-8"?>
<!-- Generator: Adobe Illustrator 19.2.1, SVG Export Plug-In . SVG Version: 6.00 Build 0)  -->
<svg version="1.1" id="Ebene_1" xmlns="http://www.w3.org/2000/svg" xmlns:xlink="http://www.w3.org/1999/xlink" x="0px" y="0px"
	 viewBox="0 0 50 50" style="enable-background:new 0 0 50 50;" xml:space="preserve">
<path d="M42.5,8.6c0-0.3-0.1-0.6-0.4-0.9c-0.3-0.3-0.5-0.4-0.9-0.4H26.4L6.5,27.3l16.1,16.1l19.9-19.9L42.5,8.6L42.5,8.6z M32,12.9
	c0.7-0.7,1.5-1,2.4-1c0.9,0,1.7,0.3,2.4,1c0.7,0.7,1,1.5,1,2.4c0,0.9-0.3,1.7-1,2.4c-0.7,0.7-1.5,1-2.4,1c-0.9,0-1.7-0.3-2.4-1
	c-0.7-0.7-1-1.5-1-2.4C31,14.4,31.3,13.6,32,12.9L32,12.9z"/>
</svg>
