<?xml version="1.0" encoding="UTF-8"?>
<svg viewBox="0 0 120 56" version="1.1" xmlns="http://www.w3.org/2000/svg" xmlns:xlink="http://www.w3.org/1999/xlink">
    <!-- Generator: Sketch 57.1 (83088) - https://sketch.com -->
    <title>Icon Footer / Partner / partner_BTHVN_on_Tour</title>
    <desc>Created with Sketch.</desc>
    <g id="Icon-Footer-/-Partner-/-partner_BTHVN_on_Tour" stroke="none" stroke-width="1" fill="none" fill-rule="evenodd">
        <path d="M115.624225,40.3600507 C116.148592,39.9556845 116.616338,39.4731493 117.18338,39.1904732 C117.77493,38.8963887 118.459437,38.9614591 119.101268,39.1685014 L119.101268,42.0666704 C118.735352,42.0062479 118.408732,41.9344169 118.077887,41.9014591 C116.791268,41.7755437 115.938169,42.4710366 115.852817,43.8058253 C115.779296,44.9462479 115.808451,46.0938535 115.793239,47.2380789 C115.790704,47.4548394 115.792394,47.6716 115.792394,47.9238535 L112.476761,47.9238535 L112.476761,39.2623042 L115.624225,39.2623042 L115.624225,40.3600507 Z M104.983944,39.2559662 C104.983944,39.4401915 104.983521,39.6159662 104.984366,39.7921634 C104.989859,41.2587831 104.988169,42.7249803 105.00338,44.1911775 C105.013099,45.0768113 105.330423,45.4858253 105.989155,45.5145577 C106.745915,45.5475155 107.287183,45.0903324 107.33662,44.2554028 C107.396197,43.2472338 107.372958,42.2344169 107.380563,41.2237127 C107.385211,40.585262 107.381408,39.9472338 107.381408,39.2754028 L110.681831,39.2754028 L110.681831,47.9390648 L107.543239,47.9390648 L107.543239,46.9613183 C107.412254,47.0470929 107.341268,47.0766704 107.293521,47.1273746 C106.232113,48.2580789 104.916338,48.4080789 103.521549,48.0096282 C102.430563,47.6973746 101.732535,46.8818817 101.689859,45.7651211 C101.607465,43.6144169 101.665775,41.4582197 101.665775,39.2559662 L104.983944,39.2559662 Z M92.2423944,39.0506141 L88.925493,39.0506141 L88.925493,47.9310366 L85.1890141,47.9310366 L85.1890141,39.0776563 L81.9046479,39.0776563 L81.9046479,36.0037127 L92.2423944,36.0037127 L92.2423944,39.0506141 Z M70.764507,40.2628676 C71.8026761,39.0772338 73.0614085,38.8330084 74.4452113,39.133431 C75.7001408,39.4051211 76.5312676,40.3558253 76.5608451,41.6377972 C76.608169,43.6769521 76.5739437,45.7173746 76.571831,47.7573746 C76.571831,47.8051211 76.5477465,47.8528676 76.5266197,47.9301915 L73.2346479,47.9301915 L73.2346479,47.389769 C73.2346479,46.0744169 73.2367606,44.7594873 73.2329577,43.4449803 C73.2321127,43.1923042 73.2207042,42.9392056 73.1911268,42.6886422 C73.1180282,42.0670929 72.8814085,41.7983606 72.3519718,41.707938 C71.8390141,41.6208958 71.2761972,41.8566704 71.0771831,42.3235718 C70.9432394,42.6392056 70.8688732,43.0025859 70.8633803,43.3456845 C70.8414085,44.8600507 70.8540845,46.3748394 70.8540845,47.9251211 L67.5274648,47.9251211 L67.5274648,39.2555437 L70.7087324,39.2555437 C70.7256338,39.5639944 70.7425352,39.8686422 70.764507,40.2628676 L70.764507,40.2628676 Z M60.0215493,45.1300507 C60.2611268,45.703431 60.7360563,46.0262479 61.3783099,45.9983606 C62.0171831,45.9700507 62.4633803,45.619769 62.6619718,45.026107 C62.7988732,44.617938 62.8407042,44.1780789 62.9247887,43.7517408 C62.8432394,43.3203324 62.8069014,42.8969521 62.6780282,42.5031493 C62.4714085,41.8723042 61.9504225,41.4844169 61.3690141,41.4890235 C60.7115493,41.4945577 60.2383099,41.8237127 60,42.4266704 C59.646338,43.3232901 59.6514085,44.2431493 60.0215493,45.1300507 L60.0215493,45.1300507 Z M61.6795775,39.1710366 C63.2425352,39.3020225 64.6069014,39.7824451 65.4278873,41.1970929 C66.3507042,42.7858253 66.3752113,44.4594873 65.5102817,46.0693465 C64.6267606,47.7146986 63.1035211,48.2830084 60.5839437,48.2644169 C58.9588732,48.2639944 57.2467606,47.0762479 56.7088732,45.0708958 C55.8147887,41.737938 58.2367606,38.8816 61.6795775,39.1710366 L61.6795775,39.1710366 Z M11.7929577,21.0928676 C10.7885915,20.7341352 9.74873239,20.8051342 8.68394366,20.8224451 L8.68394366,25.4327268 C9.75338028,25.3072338 10.7822535,25.2730084 11.766338,25.046107 C12.6756338,24.8365296 13.0939437,24.049769 13.0982013,22.9689239 C13.1023944,22.0165296 12.6921127,21.4139944 11.7929577,21.0928676 L11.7929577,21.0928676 Z M12.6785915,13.8823042 C12.6025352,12.9616 12.1977465,12.3789239 11.2897183,12.1955437 C10.4484507,12.025262 9.57464789,12.019769 8.6856338,11.9386422 L8.6856338,16.3765296 C9.68070423,16.3680789 10.6580282,16.5168113 11.5804225,16.076107 C12.3667606,15.7008958 12.7630986,14.9006141 12.6785915,13.8823042 L12.6785915,13.8823042 Z M19.9829577,19.3363887 C21.8011268,20.7932901 22.2638028,22.7390648 21.8602817,24.9180789 C21.3561972,27.6387831 19.4911268,29.1227268 16.9626761,29.7949803 C15.7056338,30.1287831 14.3716901,30.2931493 13.0694366,30.3125859 C8.81661972,30.3751211 4.56211268,30.3358253 0.308450704,30.3349803 C0.224788732,30.3349803 0.141126761,30.326107 0,30.3176563 L0,7.01019154 L0.56028169,7.01019154 C5.03323944,7.01019154 9.50661972,7.00469858 13.9795775,7.01357182 C15.3350704,7.01652957 16.6740845,7.16019154 17.9488732,7.66596619 C19.9964789,8.4785014 21.1030986,9.99498027 21.3215493,12.1748394 C21.4685915,13.6389239 21.3405634,15.0404732 20.3852113,16.2476563 C19.6643662,17.1586422 18.6642254,17.6293465 17.5897183,17.9749803 C17.4325352,18.0256845 17.274507,18.0730084 17.0112676,18.1545577 C18.1478873,18.3772338 19.1476056,18.6675155 19.9829577,19.3363887 L19.9829577,19.3363887 Z M38.015493,30.3024451 L28.7285915,30.3024451 L28.7285915,13.2932901 L22.9685915,13.2932901 L22.9685915,7.04230422 L43.7176056,7.04230422 L43.7176056,13.2780789 L38.015493,13.2780789 L38.015493,30.3024451 Z M58.571831,21.7651211 L54.671831,21.7651211 L54.671831,30.3003324 L45.4466197,30.3003324 L45.4466197,7.04652957 L54.6447887,7.04652957 L54.6447887,14.8363887 L58.5659155,14.8363887 L58.5659155,7.05159999 L67.8101408,7.05159999 L67.8101408,30.3041352 L58.571831,30.3041352 L58.571831,21.7651211 Z M85.4505634,30.3358253 C82.4290141,30.3358253 79.4066197,30.3328676 76.3846479,30.3417539 C76.0825352,30.3425859 75.9092958,30.3032901 75.8129577,29.9589239 C73.7112676,22.4546986 71.5952113,14.9546986 69.4833803,7.45385351 C69.4483099,7.32878309 69.4335211,7.19821971 69.4026761,7.03596619 C69.5877465,7.02582534 69.7352113,7.01103661 69.8830986,7.01103661 C72.6857746,7.00976901 75.4884507,7.01399436 78.2911268,7.00551807 C78.6367606,7.00427605 78.8146479,7.04864225 78.8843662,7.46948732 C79.8401408,13.2168113 80.8221127,18.9594873 81.7990141,24.7025859 C81.8142254,24.7938535 81.8492958,24.8817408 81.9608451,24.9658253 C82.1729577,23.7328676 82.3880282,22.5003324 82.5967606,21.2665296 C83.3809859,16.6351211 84.1605634,12.0028676 84.9587324,7.37314929 C84.9819718,7.23582534 85.1915493,7.02709295 85.3149296,7.02624788 C88.2861972,7.00807887 91.2574648,7.01357182 94.2287324,7.0169521 C94.2760563,7.0169521 94.3225352,7.04314929 94.4332394,7.07652957 C92.2516901,14.8177972 90.071831,22.5531493 87.8792958,30.3358253 L85.4505634,30.3358253 Z M97.1978873,42.236107 C97.0174648,41.7016 96.5784507,41.4683606 96.018169,41.4679359 C95.4528169,41.4670929 95.0256338,41.7210366 94.8367606,42.2449803 C94.5080282,43.1568113 94.4983099,44.0914591 94.8540845,44.9999099 C95.058169,45.5221634 95.4811268,45.7507549 96.053662,45.7393465 C96.6046479,45.7283606 97.0157746,45.4985014 97.1919718,44.9901915 C97.3423944,44.5541352 97.3935211,44.083431 97.4911268,43.6144169 C97.3947887,43.1432901 97.3453521,42.673431 97.1978873,42.236107 L97.1978873,42.236107 Z M99.6287324,40.4107549 C100.967324,41.8993465 101.094085,43.6630084 100.444225,45.4727268 C99.8328169,47.1746986 98.4807042,47.9644169 96.7335211,48.1532901 C96.4990141,48.1786422 96.2632394,48.1883606 96.1453521,48.1972407 C93.5480282,48.2006141 91.8756338,46.9668113 91.3728169,44.7632901 C90.833662,42.397938 91.8942254,40.1669521 93.935493,39.3725859 C95.8939437,38.6099099 98.3776056,39.019769 99.6287324,40.4107549 L99.6287324,40.4107549 Z M108.464789,30.2969521 C106.841408,25.6423042 105.21,20.9639944 103.578169,16.285262 C103.549437,16.2903324 103.520704,16.2954028 103.491972,16.3004732 L103.491972,30.3024451 L96,30.3024451 L96,7.01019154 L96.5197183,7.01019154 C99.8632394,7.01019154 103.206761,7.01821971 106.549859,7.00002504 C106.960141,6.99793802 107.123239,7.12596619 107.257183,7.5113183 C108.782958,11.8993465 110.330704,16.279769 111.873803,20.6618817 C111.904225,20.7480789 111.945211,20.8308958 112.064789,20.9014591 L112.064789,7.0469521 L119.57831,7.0469521 L119.57831,30.2969521 L108.464789,30.2969521 Z" id="Fill-1" fill="#666666"></path>
    </g>
</svg>