<?xml version="1.0" encoding="UTF-8"?>
<svg viewBox="0 0 47 56" version="1.1" xmlns="http://www.w3.org/2000/svg" xmlns:xlink="http://www.w3.org/1999/xlink">
    <!-- Generator: Sketch 57.1 (83088) - https://sketch.com -->
    <title>Icon Footer / Partner / partner_ESL_One</title>
    <desc>Created with Sketch.</desc>
    <defs>
        <linearGradient x1="50%" y1="0%" x2="50%" y2="100%" id="linearGradient-1">
            <stop stop-color="#7A7A7A" offset="0%"></stop>
            <stop stop-color="#727372" offset="100%"></stop>
        </linearGradient>
        <linearGradient x1="12.9512371%" y1="74.1718986%" x2="96.6807813%" y2="12.0216696%" id="linearGradient-2">
            <stop stop-color="#666667" offset="0%"></stop>
            <stop stop-color="#666667" offset="100%"></stop>
        </linearGradient>
        <linearGradient x1="69.3504494%" y1="4.17455469%" x2="38.8923815%" y2="105.857932%" id="linearGradient-3">
            <stop stop-color="#666667" offset="0%"></stop>
            <stop stop-color="#666667" offset="100%"></stop>
        </linearGradient>
        <linearGradient x1="7.09275418%" y1="4.92760459%" x2="98.18275%" y2="94.5728531%" id="linearGradient-4">
            <stop stop-color="#6C6C6C" offset="0%"></stop>
            <stop stop-color="#6C6C6C" offset="100%"></stop>
        </linearGradient>
        <linearGradient x1="24.1745931%" y1="42.6398365%" x2="99.4809379%" y2="76.6417553%" id="linearGradient-5">
            <stop stop-color="#6D6C6B" offset="0%"></stop>
            <stop stop-color="#80807F" offset="100%"></stop>
        </linearGradient>
        <linearGradient x1="3.21787065%" y1="18.6983658%" x2="84.7137712%" y2="61.3443664%" id="linearGradient-6">
            <stop stop-color="#6D6C6B" offset="0%"></stop>
            <stop stop-color="#6C6C6C" offset="100%"></stop>
        </linearGradient>
    </defs>
    <g id="Icon-Footer-/-Partner-/-partner_ESL_One" stroke="none" stroke-width="1" fill="none" fill-rule="evenodd">
        <polygon id="Fill-2" fill="#666666" points="6.75087399 42.6229546 0.321688157 13.7133425 23.3291986 0.367308955 46.3366251 13.7132587 39.8885669 42.6057598 23.3291147 55.3566848"></polygon>
        <polygon id="Fill-3" fill="url(#linearGradient-1)" points="0.226428843 13.6715969 5.76215496 20.0984341 25.3219778 50.4328679 23.3292238 55.462563 6.67557745 42.6708736"></polygon>
        <polygon id="Fill-6" fill="url(#linearGradient-2)" points="23.3292238 0.270372098 5.76215496 20.0984341 0.226428843 13.6715969"></polygon>
        <polygon id="Fill-9" fill="url(#linearGradient-3)" points="25.3219778 50.4328679 40.4332905 26.3910679 46.4319348 13.6715969 39.9638299 42.6536788 23.3292238 55.462563"></polygon>
        <polygon id="Fill-12" fill="url(#linearGradient-4)" points="40.4332905 26.3910679 23.3292238 0.270372098 46.4319348 13.6715969"></polygon>
        <polygon id="Fill-15" fill="url(#linearGradient-5)" points="5.76215496 20.0984341 40.4332905 26.3910679 23.3292238 0.270372098"></polygon>
        <polygon id="Fill-18" fill="url(#linearGradient-6)" points="25.3219778 50.4328679 5.76215496 20.0984341 40.4332905 26.3910679"></polygon>
        <path d="M12.6597529,25.7357104 C12.3061267,25.7357104 11.8437118,25.7900628 11.5445219,26.0620765 C11.2180719,26.3614341 11.1364594,26.9867385 11.1364594,27.4222288 L11.1364594,37.5411718 C11.1364594,37.976746 11.2180719,38.6024698 11.5445219,38.901408 C11.8437118,39.1734217 12.3061267,39.2277741 12.6597529,39.2277741 C13.0133791,39.2277741 13.5030541,39.1734217 13.7750678,38.901408 C14.1287778,38.6024698 14.1831302,37.976746 14.1831302,37.5411718 L14.1831302,27.4222288 C14.1831302,26.9867385 14.1287778,26.3614341 13.7750678,26.0620765 C13.5030541,25.7900628 13.0133791,25.7357104 12.6597529,25.7357104 M12.6597529,42.2201764 C11.3812131,42.2201764 10.2932422,41.8394579 9.5042934,41.1049454 C8.87865351,40.5066495 8.14422493,39.4457709 8.14422493,37.5411718 L8.14422493,27.4222288 C8.14422493,25.518133 8.87865351,24.456835 9.5042934,23.8585391 C10.2932422,23.1240266 11.3812131,22.7433081 12.6597529,22.7433081 C13.9382928,22.7433081 15.0264314,23.1240266 15.8153802,23.8585391 C16.4409362,24.456835 17.1754486,25.518133 17.1754486,27.4222288 L17.1754486,37.5411718 C17.1754486,39.4457709 16.4409362,40.5066495 15.8153802,41.1049454 C15.0264314,41.8394579 13.9382928,42.2201764 12.6597529,42.2201764" id="Fill-21" fill="#F1F1F1"></path>
        <polygon id="Fill-23" fill="#F1F1F1" points="28.3022263 42.0026409 26.5611876 42.0026409 21.9911395 32.3457773 21.9911395 42.0026409 18.998905 42.0026409 18.998905 22.9608436 20.7398597 22.9608436 25.3099079 32.5906987 25.3099079 22.9608436 28.3022263 22.9608436"></polygon>
        <polygon id="Fill-25" fill="#F1F1F1" points="37.1436527 25.953271 33.3624694 25.953271 33.3624694 30.7409804 37.5788075 30.7409804 36.2188229 33.7329633 33.3624694 33.7329633 33.3624694 39.01018 38.5308974 39.01018 37.1436527 42.0026661 30.370151 42.0026661 30.370151 22.9608687 38.5308974 22.9608687"></polygon>
        <path d="M19.4002321,18.6205686 C19.4002321,19.5947181 20.1899358,20.3844218 21.1640853,20.3844218 L25.464049,20.3844218 L25.464049,18.6205686 L21.4160524,18.6205686 L21.4160524,17.3577137 L25.1984099,17.3577137 L25.1984099,15.7921462 L21.4160524,15.7921462 L21.4160524,14.5709783 L25.464049,14.5709783 L25.464049,12.8070412 L21.1628272,12.8070412 C20.1893486,12.8070412 19.4002321,13.5962416 19.4002321,14.5696363 L19.4002321,18.6205686 Z" id="Fill-27" fill="#F1F1F1"></path>
        <path d="M32.2267643,18.0872858 L32.2267643,18.0872858 C32.2261769,16.8195661 31.1983459,15.7921546 29.9306262,15.7921546 L28.1062976,15.7921546 L28.1062976,14.5709867 L31.8622338,14.5709867 L31.8622338,12.8070496 L28.3658135,12.8070496 C27.1091656,12.8070496 26.0904773,13.825738 26.0904773,15.0823859 C26.0904773,16.3390338 27.1091656,17.3577221 28.3658135,17.3577221 L30.2109437,17.3577221 L30.2109437,18.6204931 L26.4550075,18.6204931 L26.4550075,20.3844302 L29.9306262,20.3844302 C31.1991847,20.3844302 32.2273512,19.3558443 32.2267643,18.0872858" id="Fill-29" fill="#F1F1F1"></path>
        <path d="M34.7116255,20.384405 L38.530889,20.384405 L38.530889,18.6205518 L34.9636764,18.6205518 L34.9636764,12.8071083 L32.9478561,12.8071083 L32.9478561,18.6205518 C32.9478561,19.5947014 33.7375598,20.384405 34.7116255,20.384405" id="Fill-31" fill="#F1F1F1"></path>
        <path d="M12.7705798,11.9862024 C15.3256465,11.9862024 17.3969934,14.0574655 17.3969934,16.612616 C17.3969934,19.1676826 15.3256465,21.2389457 12.7705798,21.2389457 C10.2155132,21.2389457 8.14416621,19.1676826 8.14416621,16.612616 C8.14416621,14.0574655 10.2155132,11.9862024 12.7705798,11.9862024 Z M16.4812392,17.4170485 L11.8931574,20.3063657 C14.3150271,20.8452766 16.1389364,19.1323368 16.4812392,17.4170485 Z M15.7184852,14.2204556 L10.3784446,19.5604962 C10.5687619,19.7150819 10.7741771,19.8514662 10.9923417,19.9673006 L16.5635478,16.458802 C16.5297453,15.6117264 16.2188126,14.8362818 15.7184852,14.2204556 Z M12.9458664,12.8201848 L9.42562499,18.4099278 C9.54238203,18.6267503 9.67943734,18.8309074 9.83452624,19.0197988 L15.1777542,13.6764869 C14.5647798,13.1733077 13.7913483,12.8586005 12.9458664,12.8201848 Z" id="Fill-34" fill="#F1F1F1"></path>
    </g>
</svg>